<?xml version="1.0" encoding="utf-8"?>
<!-- Generator: Adobe Illustrator 17.0.0, SVG Export Plug-In . SVG Version: 6.00 Build 0)  -->
<!DOCTYPE svg PUBLIC "-//W3C//DTD SVG 1.1//EN" "http://www.w3.org/Graphics/SVG/1.1/DTD/svg11.dtd">
<svg version="1.1" id="Layer_1" xmlns="http://www.w3.org/2000/svg" xmlns:xlink="http://www.w3.org/1999/xlink" x="0px" y="0px"
	 width="589.797px" height="218.622px" viewBox="0 0 589.797 218.622" enable-background="new 0 0 589.797 218.622"
	 xml:space="preserve">
<g>
	<g>
		<path fill="#FFFFFF" d="M166.772,47.032c-0.189,0.885-0.6,1.579-1.231,2.083c-0.633,0.507-1.327,0.759-2.085,0.759
			c-1.136,0-2.053-0.364-2.747-1.092c-0.696-0.725-1.043-1.562-1.043-2.51c0-0.946,0.095-1.877,0.285-2.794
			c0.189-0.914,0.284-1.814,0.284-2.699c0-4.611-1.421-8.746-4.263-12.411c-2.843-3.662-6.869-6.74-12.078-9.236
			c-5.211-2.493-11.542-4.404-18.994-5.731c-7.453-1.327-15.758-1.989-24.915-1.989c-7.011,0-14.068,0.458-21.172,1.373
			c-7.105,0.917-13.927,2.244-20.463,3.977c-6.536,1.739-12.647,3.917-18.331,6.539c-5.684,2.619-10.625,5.651-14.825,9.092
			c-4.201,3.444-7.501,7.264-9.9,11.462c-2.4,4.201-3.599,8.797-3.599,13.783c0,3.854,0.837,7.247,2.51,10.184
			c1.672,2.937,3.963,5.496,6.869,7.674c2.904,2.178,6.33,4.043,10.277,5.591c3.947,1.547,8.226,2.84,12.836,3.883
			c4.609,1.043,9.41,1.894,14.399,2.559c4.989,0.662,10.009,1.215,15.063,1.656l14.589,1.232c7.263,0.63,13.768,1.295,19.516,1.989
			c5.745,0.696,10.799,1.579,15.156,2.654c7.263,1.831,12.631,4.45,16.106,7.863c3.472,3.41,5.21,7.958,5.21,13.64
			c0,5.496-1.516,10.327-4.548,14.494c-3.03,4.169-7.168,7.674-12.409,10.517c-5.243,2.84-11.368,4.986-18.378,6.442
			c-7.011,1.45-14.527,2.178-22.546,2.178c-8.716,0-16.374-0.585-22.973-1.754s-12.126-2.462-16.577-3.883
			c-4.453-1.421-7.849-2.731-10.184-3.932c-2.337-1.198-3.601-1.863-3.79-1.989c-1.136-0.63-1.705-1.642-1.705-3.032
			c0-1.075,0.38-1.943,1.138-2.605c0.757-0.665,1.577-0.994,2.463-0.994c0.693,0,1.325,0.189,1.894,0.567
			c0.062,0,1.152,0.553,3.268,1.659c2.115,1.103,5.273,2.321,9.474,3.645c4.199,1.327,9.393,2.527,15.583,3.602
			s13.389,1.61,21.599,1.61c8.147,0,15.346-0.665,21.599-1.992c6.253-1.324,11.509-3.172,15.773-5.542
			c4.263-2.367,7.483-5.147,9.663-8.336c2.178-3.186,3.268-6.645,3.268-10.373c0-2.209-0.395-4.121-1.185-5.731
			s-1.88-2.997-3.268-4.167c-1.39-1.169-3.048-2.163-4.973-2.986c-1.927-0.82-4.026-1.516-6.3-2.083
			c-2.4-0.63-4.973-1.169-7.72-1.61c-2.748-0.441-5.575-0.82-8.479-1.138c-2.906-0.315-5.826-0.599-8.763-0.851
			c-2.937-0.252-5.826-0.504-8.668-0.759l-14.589-1.232c-11.495-0.946-21.52-2.416-30.077-4.404
			c-8.559-1.989-15.679-4.548-21.363-7.674c-5.684-3.123-9.946-6.866-12.789-11.224c-2.841-4.359-4.263-9.442-4.263-15.253
			c0-5.935,1.341-11.382,4.026-16.339c2.684-4.957,6.347-9.428,10.989-13.405c4.641-3.98,10.072-7.436,16.294-10.373
			c6.22-2.937,12.866-5.384,19.941-7.342c7.072-1.957,14.399-3.424,21.977-4.404c7.578-0.98,15.03-1.47,22.357-1.47
			c9.157,0,17.13,0.553,23.92,1.659c6.787,1.106,12.598,2.527,17.43,4.261c4.831,1.739,8.794,3.711,11.889,5.923
			c3.093,2.209,5.589,4.39,7.485,6.536c4.483,5.241,6.725,11.21,6.725,17.904C167.436,42.897,167.214,45.012,166.772,47.032z"/>
		<path fill="#FFFFFF" d="M86.345,154.597c-8.932,0-16.918-0.613-23.741-1.822c-6.771-1.198-12.543-2.553-17.147-4.023
			c-4.737-1.51-8.29-2.888-10.858-4.21c-2.963-1.516-3.728-1.937-4.043-2.129c-2.444-1.413-3.843-3.886-3.843-6.806
			c0-2.33,0.94-4.433,2.651-5.923c2.648-2.327,6.447-2.682,9.302-1.014c0.673,0.315,1.653,0.828,3.252,1.665
			c1.886,0.983,4.834,2.112,8.757,3.347c3.997,1.264,9.049,2.427,15.013,3.464c5.906,1.026,12.921,1.545,20.847,1.545
			c7.8,0,14.758-0.639,20.686-1.897c5.791-1.224,10.683-2.934,14.548-5.083c3.639-2.02,6.387-4.364,8.167-6.969
			c1.682-2.462,2.499-5.043,2.499-7.892c0-1.522-0.246-2.8-0.736-3.797c-0.516-1.057-1.221-1.951-2.149-2.734
			c-1.046-0.88-2.344-1.656-3.866-2.304c-1.716-0.731-3.616-1.358-5.639-1.863c-2.321-0.607-4.777-1.12-7.353-1.533
			c-2.636-0.424-5.413-0.797-8.256-1.109c-2.868-0.312-5.76-0.593-8.663-0.842c-2.943-0.252-5.837-0.504-8.685-0.759l-14.563-1.229
			c-11.631-0.957-21.964-2.473-30.704-4.505c-8.903-2.069-16.471-4.794-22.489-8.104C13.038,84.611,8.21,80.344,4.977,75.393
			C1.676,70.326,0,64.386,0,57.735s1.533-12.852,4.556-18.437c2.934-5.413,6.969-10.342,11.998-14.649
			c4.912-4.215,10.726-7.92,17.276-11.012c6.416-3.029,13.362-5.588,20.646-7.602c7.23-2.003,14.829-3.525,22.586-4.528
			C84.795,0.507,92.506,0,99.985,0c9.35,0,17.637,0.579,24.629,1.716c7.018,1.143,13.141,2.645,18.208,4.462
			c5.204,1.874,9.565,4.055,12.964,6.485c3.347,2.393,6.112,4.814,8.224,7.204c5.21,6.089,7.826,13.076,7.826,20.818
			c0,2.516-0.258,4.969-0.762,7.287c-0.395,1.851-1.358,3.444-2.78,4.579c-1.418,1.132-3.089,1.725-4.837,1.725
			c-2.35,0-4.401-0.851-5.932-2.456c-1.47-1.527-2.258-3.45-2.258-5.548c0-1.258,0.126-2.502,0.378-3.697
			c0.123-0.607,0.189-1.215,0.189-1.797c0-3.639-1.092-6.814-3.341-9.714c-2.404-3.098-5.937-5.777-10.499-7.963
			c-4.831-2.31-10.843-4.118-17.864-5.367c-7.161-1.275-15.282-1.92-24.145-1.92c-6.783,0-13.717,0.45-20.609,1.335
			c-6.872,0.888-13.568,2.189-19.896,3.868c-6.267,1.668-12.196,3.78-17.617,6.281c-5.313,2.447-9.984,5.307-13.881,8.499
			c-3.762,3.086-6.746,6.531-8.863,10.241c-2.032,3.553-3.02,7.347-3.02,11.6c0,3.103,0.633,5.723,1.934,8.006
			c1.364,2.398,3.272,4.528,5.68,6.33c2.579,1.934,5.691,3.619,9.247,5.015c3.705,1.453,7.812,2.694,12.199,3.688
			c4.442,1.006,9.155,1.843,14.013,2.487c4.917,0.653,9.918,1.204,14.864,1.636l14.574,1.229c7.23,0.628,13.846,1.304,19.675,2.006
			c5.917,0.716,11.193,1.642,15.68,2.751c8.132,2.049,14.058,4.989,18.136,8.995c4.333,4.255,6.528,9.903,6.528,16.781
			c0,6.422-1.814,12.167-5.39,17.084c-3.404,4.679-8.069,8.648-13.866,11.795c-5.599,3.032-12.187,5.347-19.586,6.883
			C102.504,153.834,94.618,154.597,86.345,154.597z"/>
	</g>
	<g>
		<path fill="#FFFFFF" d="M189.224,135.89c-2.212,3.599-4.784,6.442-7.721,8.525c-2.937,2.086-5.89,3.126-8.857,3.126
			c-2.401,0-4.548-0.441-6.442-1.324c-1.894-0.885-3.538-2.132-4.926-3.742c-1.39-1.61-2.449-3.553-3.174-5.826
			c-0.726-2.275-1.089-4.831-1.089-7.674c0-4.422,0.426-8.336,1.278-11.746c0.853-3.413,1.784-6.27,2.795-8.574
			c1.009-2.307,2.398-4.657,4.168-7.058c0.315-0.378,0.711-0.665,1.183-0.854c0.474-0.189,0.963-0.284,1.469-0.284
			c1.01,0,1.847,0.364,2.51,1.089c0.663,0.728,0.994,1.565,0.994,2.51c0,0.381-0.079,0.759-0.236,1.138
			c-0.158,0.378-0.331,0.757-0.52,1.138c-0.318,0.567-0.822,1.436-1.516,2.605c-0.696,1.169-1.421,2.699-2.179,4.593
			s-1.421,4.121-1.99,6.68c-0.567,2.556-0.853,5.479-0.853,8.763c0,3.725,0.742,6.554,2.227,8.479
			c1.483,1.926,3.583,2.888,6.3,2.888c1.136,0,2.447-0.364,3.932-1.089c1.483-0.725,2.937-1.848,4.357-3.364
			c1.421-1.516,2.668-3.442,3.742-5.777c1.073-2.338,1.768-5.083,2.085-8.244l1.42-16.294c0.126-0.946,0.536-1.737,1.232-2.367
			c0.693-0.63,1.516-0.949,2.463-0.949c1.073,0,1.926,0.395,2.558,1.183c0.63,0.791,0.947,1.691,0.947,2.702l-1.231,15.723
			c-0.128,1.327-0.08,3.066,0.142,5.212c0.221,2.146,0.678,4.261,1.374,6.347c0.693,2.083,1.737,3.868,3.126,5.35
			c1.388,1.487,3.221,2.227,5.493,2.227c1.642,0,3.252-0.424,4.831-1.278c1.579-0.854,3.095-1.974,4.548-3.364
			c1.453-1.387,2.795-2.952,4.026-4.688c1.232-1.737,2.368-3.487,3.41-5.258c1.043-1.768,1.943-3.456,2.701-5.066
			c0.758-1.61,1.388-2.986,1.894-4.121c0.315-0.696,0.758-1.232,1.327-1.61c0.567-0.381,1.199-0.57,1.894-0.57
			c1.138,0,2.02,0.378,2.652,1.138c0.632,0.757,0.949,1.579,0.949,2.462c0,0.507-0.096,0.98-0.285,1.421
			c-0.252,0.507-0.742,1.565-1.469,3.175c-0.726,1.61-1.673,3.442-2.841,5.493c-1.169,2.055-2.575,4.215-4.215,6.49
			c-1.643,2.272-3.474,4.373-5.495,6.298c-2.022,1.929-4.215,3.505-6.584,4.737c-2.368,1.232-4.912,1.848-7.627,1.848
			c-3.727,0-6.82-1.06-9.283-3.175C192.254,142.822,190.422,139.808,189.224,135.89z"/>
		<path fill="#FFFFFF" d="M204.002,152.513c-4.788,0-8.877-1.427-12.15-4.238c-1.324-1.135-2.502-2.467-3.527-3.986
			c-1.341,1.404-2.768,2.648-4.273,3.714c-3.682,2.616-7.522,3.94-11.408,3.94c-3.032,0-5.826-0.585-8.299-1.734
			c-2.467-1.155-4.616-2.788-6.402-4.863c-1.768-2.046-3.129-4.525-4.032-7.359c-0.863-2.691-1.298-5.723-1.298-9.012
			c0-4.768,0.476-9.078,1.41-12.815c0.928-3.708,1.92-6.743,3.037-9.279c1.132-2.585,2.696-5.244,4.654-7.897
			c0.948-1.152,1.934-1.865,3.089-2.327c3.098-1.241,6.637-0.504,8.86,1.917c1.41,1.55,2.149,3.442,2.149,5.485
			c0,0.966-0.192,1.917-0.573,2.831c-0.195,0.464-0.41,0.931-0.642,1.401c-0.424,0.771-0.949,1.676-1.671,2.894
			c-0.573,0.957-1.204,2.292-1.88,3.986c-0.665,1.653-1.264,3.671-1.782,5.998c-0.493,2.229-0.745,4.854-0.745,7.806
			c0,3.381,0.714,5.015,1.312,5.791c0.47,0.61,1.135,1.175,2.811,1.175c0.16,0,0.779-0.046,2-0.642
			c0.994-0.487,2.032-1.301,3.075-2.416c1.092-1.166,2.086-2.717,2.96-4.611c0.863-1.88,1.436-4.184,1.702-6.84l1.416-16.239
			c0.284-2.178,1.198-3.923,2.662-5.25c1.499-1.361,3.376-2.086,5.419-2.086c2.401,0,4.53,1.006,5.992,2.834
			c1.252,1.57,1.911,3.453,1.911,5.453c0,0.115-0.006,0.229-0.014,0.344l-1.229,15.723c-0.075,0.785-0.106,2.106,0.132,4.419
			c0.189,1.822,0.585,3.642,1.172,5.404c0.496,1.49,1.204,2.711,2.161,3.731c0.39,0.418,0.96,0.837,2.284,0.837
			c0.911,0,1.805-0.244,2.737-0.748c1.229-0.665,2.439-1.565,3.599-2.674c1.241-1.183,2.41-2.545,3.479-4.055
			c1.152-1.619,2.229-3.284,3.209-4.946c0.971-1.648,1.814-3.229,2.507-4.702c0.745-1.585,1.364-2.934,1.863-4.046
			c0.665-1.473,1.639-2.636,2.9-3.476c1.272-0.854,2.777-1.31,4.338-1.31c2.427,0,4.568,0.966,6.032,2.719
			c1.287,1.539,1.969,3.367,1.969,5.281c0,1.098-0.215,2.161-0.642,3.155c-0.347,0.711-0.808,1.719-1.502,3.255
			c-0.788,1.742-1.808,3.714-3.029,5.857c-1.232,2.166-2.737,4.485-4.467,6.886c-1.802,2.493-3.831,4.814-6.029,6.912
			c-2.31,2.201-4.866,4.038-7.591,5.456C210.67,151.725,207.42,152.513,204.002,152.513z M189.224,131.489
			c0.183,0,0.373,0.011,0.559,0.034c0.287,0.037,0.565,0.1,0.831,0.189c-0.261-1.112-0.461-2.238-0.607-3.37
			c-0.321,1.112-0.699,2.166-1.129,3.161C188.992,131.495,189.107,131.489,189.224,131.489z"/>
	</g>
	<g>
		<path fill="#FFFFFF" d="M279.599,120.259c-0.696,1.456-1.563,3.175-2.606,5.164c-1.042,1.989-2.225,4.058-3.552,6.204
			c-1.327,2.149-2.811,4.281-4.453,6.396c-1.642,2.118-3.426,4.012-5.351,5.685c-1.927,1.673-3.979,3.029-6.158,4.072
			s-4.5,1.565-6.963,1.565c-3.788,0-7.042-1.172-9.757-3.507c-2.715-2.335-5.02-5.399-6.915-9.187
			c-1.896-3.791-3.427-8.101-4.595-12.932c-1.169-4.831-2.069-9.757-2.699-14.778c-0.633-5.02-1.059-9.9-1.279-14.637
			c-0.222-4.737-0.331-8.935-0.331-12.6c0-5.304,0.172-10.797,0.52-16.483c0.347-5.682,0.9-11.242,1.658-16.672
			c0.758-5.43,1.721-10.58,2.89-15.442c1.168-4.863,2.558-9.124,4.168-12.789c1.61-3.662,3.457-6.568,5.542-8.714
			s4.453-3.221,7.105-3.221c2.083,0,3.962,0.49,5.637,1.467c1.672,0.98,3.079,2.573,4.215,4.785c1.136,2.209,2.02,5.083,2.652,8.62
			c0.63,3.539,0.949,7.863,0.949,12.978c0,6.316-0.663,12.838-1.99,19.563s-3.126,13.5-5.4,20.32
			c-2.272,6.82-4.959,13.626-8.052,20.414c-3.095,6.791-6.41,13.405-9.946,19.847c1.577,8.021,3.695,14.322,6.347,18.898
			c2.652,4.579,5.84,6.869,9.568,6.869c2.525,0,4.957-0.994,7.294-2.983c2.335-1.992,4.483-4.341,6.442-7.058
			c1.957-2.717,3.678-5.479,5.162-8.29c1.483-2.808,2.636-5.069,3.459-6.774c0.315-0.63,0.758-1.12,1.325-1.467
			c0.569-0.347,1.199-0.522,1.896-0.522c1.073,0,1.941,0.378,2.605,1.138c0.663,0.757,0.994,1.61,0.994,2.556
			C279.978,119.124,279.85,119.628,279.599,120.259z M232.139,82.178c0,4.04,0.095,7.926,0.284,11.651
			c0.189,3.728,0.441,7.293,0.758,10.706c2.652-5.118,5.178-10.562,7.578-16.342s4.515-11.62,6.347-17.526
			c1.831-5.903,3.3-11.777,4.406-17.62c1.103-5.84,1.658-11.416,1.658-16.721c0-7.45-0.602-12.789-1.801-16.01
			c-1.199-3.221-2.81-4.831-4.831-4.831c-1.325,0-2.605,0.917-3.836,2.748c-1.232,1.831-2.386,4.327-3.459,7.485
			c-1.075,3.158-2.053,6.883-2.936,11.176c-0.885,4.295-1.628,8.906-2.227,13.832c-0.602,4.926-1.075,10.075-1.421,15.442
			C232.311,71.536,232.139,76.871,232.139,82.178z"/>
		<path fill="#FFFFFF" d="M250.515,153.746c-4.851,0-9.098-1.539-12.626-4.571c-3.149-2.705-5.834-6.258-7.983-10.557
			c-2.037-4.081-3.699-8.746-4.934-13.869c-1.204-4.966-2.141-10.101-2.788-15.262c-0.642-5.069-1.083-10.113-1.31-14.981
			c-0.224-4.76-0.335-9.069-0.335-12.803c0-5.384,0.178-11.018,0.527-16.752c0.352-5.771,0.923-11.497,1.694-17.013
			c0.774-5.548,1.771-10.883,2.969-15.861c1.224-5.098,2.711-9.651,4.416-13.531c1.814-4.126,3.972-7.493,6.413-10.009
			c2.94-3.023,6.393-4.556,10.264-4.556c2.86,0,5.502,0.696,7.854,2.066c2.413,1.416,4.399,3.628,5.915,6.579
			c1.347,2.625,2.353,5.849,3.069,9.852c0.673,3.783,1.014,8.408,1.014,13.755c0,6.576-0.696,13.445-2.072,20.414
			c-1.358,6.88-3.221,13.898-5.542,20.861c-2.313,6.929-5.078,13.944-8.221,20.847c-2.886,6.333-6.018,12.623-9.322,18.718
			c1.439,6.771,3.293,12.147,5.525,15.996c2.705,4.674,5.003,4.674,5.757,4.674c1.459,0,2.914-0.633,4.444-1.934
			c2.055-1.754,3.983-3.868,5.723-6.281c1.834-2.545,3.464-5.158,4.843-7.769c1.447-2.745,2.579-4.957,3.381-6.625
			c0.716-1.439,1.716-2.533,2.997-3.318c1.278-0.777,2.682-1.166,4.189-1.166c2.361,0,4.407,0.914,5.92,2.639
			c1.361,1.556,2.08,3.444,2.08,5.456c0,0.969-0.221,1.969-0.693,3.149c-0.825,1.757-1.719,3.527-2.794,5.574
			c-1.069,2.043-2.313,4.221-3.702,6.47c-1.407,2.275-2.995,4.556-4.72,6.783c-1.817,2.338-3.817,4.462-5.943,6.31
			c-2.212,1.923-4.616,3.51-7.147,4.722C256.61,153.075,253.627,153.746,250.515,153.746z M230.906,108.304
			c0.003,0.029,0.009,0.054,0.011,0.083c0.201,1.605,0.433,3.207,0.693,4.8c0.774-1.427,1.539-2.863,2.295-4.31
			c-0.504,0.086-1.032,0.083-1.567-0.02C231.823,108.754,231.339,108.564,230.906,108.304z M246.57,20.386
			c-0.069,0.089-0.14,0.192-0.218,0.307c-1.006,1.496-1.997,3.665-2.943,6.445c-1.012,2.977-1.951,6.556-2.791,10.643
			c-0.865,4.204-1.593,8.737-2.166,13.477c-0.593,4.854-1.063,9.964-1.398,15.193c-0.341,5.224-0.513,10.514-0.513,15.729
			c0,1.547,0.014,3.08,0.043,4.591c0.037-0.086,0.075-0.175,0.112-0.264c2.335-5.625,4.424-11.391,6.207-17.142
			c1.771-5.708,3.212-11.474,4.284-17.136c1.049-5.542,1.582-10.892,1.582-15.901c0-8.579-0.828-12.606-1.524-14.471
			C246.991,21.176,246.756,20.706,246.57,20.386z"/>
	</g>
	<g>
		<path fill="#FFFFFF" d="M327.06,120.259c-0.696,1.456-1.563,3.175-2.606,5.164c-1.042,1.989-2.225,4.058-3.552,6.204
			c-1.327,2.149-2.811,4.281-4.453,6.396c-1.642,2.118-3.426,4.012-5.351,5.685c-1.927,1.673-3.979,3.029-6.158,4.072
			s-4.5,1.565-6.963,1.565c-3.788,0-7.042-1.172-9.757-3.507c-2.715-2.335-5.02-5.399-6.915-9.187
			c-1.896-3.791-3.427-8.101-4.595-12.932c-1.169-4.831-2.069-9.757-2.699-14.778c-0.633-5.02-1.059-9.9-1.279-14.637
			c-0.222-4.737-0.331-8.935-0.331-12.6c0-5.304,0.172-10.797,0.52-16.483c0.347-5.682,0.9-11.242,1.658-16.672
			s1.721-10.58,2.89-15.442c1.168-4.863,2.557-9.124,4.168-12.789c1.61-3.662,3.457-6.568,5.542-8.714s4.453-3.221,7.105-3.221
			c2.083,0,3.962,0.49,5.637,1.467c1.672,0.98,3.079,2.573,4.215,4.785c1.136,2.209,2.02,5.083,2.652,8.62
			c0.63,3.539,0.949,7.863,0.949,12.978c0,6.316-0.663,12.838-1.99,19.563s-3.126,13.5-5.4,20.32
			c-2.272,6.82-4.959,13.626-8.052,20.414c-3.095,6.791-6.41,13.405-9.946,19.847c1.577,8.021,3.695,14.322,6.347,18.898
			c2.652,4.579,5.84,6.869,9.568,6.869c2.525,0,4.957-0.994,7.294-2.983c2.335-1.992,4.483-4.341,6.442-7.058
			c1.957-2.717,3.678-5.479,5.162-8.29c1.483-2.808,2.636-5.069,3.459-6.774c0.315-0.63,0.758-1.12,1.325-1.467
			c0.569-0.347,1.199-0.522,1.896-0.522c1.073,0,1.941,0.378,2.605,1.138c0.663,0.757,0.994,1.61,0.994,2.556
			C327.438,119.124,327.311,119.628,327.06,120.259z M279.599,82.178c0,4.04,0.095,7.926,0.284,11.651
			c0.189,3.728,0.441,7.293,0.758,10.706c2.652-5.118,5.178-10.562,7.578-16.342s4.515-11.62,6.347-17.526
			c1.831-5.903,3.3-11.777,4.406-17.62c1.103-5.84,1.658-11.416,1.658-16.721c0-7.45-0.602-12.789-1.801-16.01
			c-1.199-3.221-2.81-4.831-4.831-4.831c-1.325,0-2.605,0.917-3.836,2.748c-1.232,1.831-2.386,4.327-3.459,7.485
			c-1.075,3.158-2.053,6.883-2.936,11.176c-0.885,4.295-1.628,8.906-2.227,13.832c-0.602,4.926-1.075,10.075-1.421,15.442
			C279.771,71.536,279.599,76.871,279.599,82.178z"/>
		<path fill="#FFFFFF" d="M297.978,153.746c-4.851,0-9.101-1.539-12.628-4.571c-3.152-2.714-5.837-6.267-7.981-10.56
			c-2.032-4.06-3.694-8.726-4.937-13.864c-1.201-4.969-2.141-10.104-2.788-15.265c-0.645-5.121-1.086-10.161-1.307-14.981
			c-0.224-4.74-0.338-9.047-0.338-12.803c0-5.399,0.178-11.035,0.53-16.752c0.347-5.723,0.914-11.445,1.691-17.01
			c0.774-5.551,1.771-10.889,2.969-15.864c1.224-5.089,2.708-9.643,4.419-13.531c1.814-4.126,3.972-7.493,6.413-10.009
			c2.894-2.98,6.442-4.556,10.262-4.556c2.86,0,5.505,0.696,7.857,2.066c2.41,1.416,4.396,3.625,5.912,6.579
			c1.35,2.622,2.355,5.849,3.069,9.855c0.676,3.788,1.017,8.416,1.017,13.752c0,6.582-0.699,13.451-2.075,20.417
			c-1.355,6.874-3.218,13.895-5.542,20.858c-2.31,6.929-5.075,13.944-8.221,20.847c-2.894,6.35-6.026,12.64-9.319,18.718
			c1.439,6.777,3.293,12.153,5.522,15.996c2.708,4.674,5.006,4.674,5.76,4.674c1.459,0,2.911-0.633,4.439-1.931
			c2.06-1.757,3.986-3.868,5.725-6.281c1.828-2.533,3.456-5.147,4.843-7.771c1.453-2.751,2.582-4.963,3.387-6.631
			c0.714-1.433,1.714-2.527,2.995-3.313c1.267-0.774,2.676-1.166,4.189-1.166c2.358,0,4.404,0.914,5.917,2.639
			c1.361,1.55,2.083,3.439,2.083,5.456c0,0.954-0.218,1.949-0.688,3.135c-0.037,0.095-0.077,0.189-0.12,0.281
			c-0.716,1.496-1.608,3.264-2.679,5.307c-1.095,2.089-2.341,4.267-3.705,6.476c-1.404,2.27-2.992,4.551-4.722,6.78
			c-1.802,2.327-3.803,4.45-5.94,6.307c-2.212,1.923-4.614,3.51-7.144,4.72C304.073,153.075,301.09,153.746,297.978,153.746z
			 M278.366,108.304c0.003,0.029,0.009,0.057,0.011,0.086c0.201,1.605,0.433,3.207,0.693,4.8c0.774-1.424,1.542-2.863,2.295-4.313
			c-0.504,0.086-1.034,0.086-1.57-0.023C279.28,108.754,278.798,108.564,278.366,108.304z M294.029,20.386
			c-0.069,0.089-0.14,0.192-0.218,0.307c-1.009,1.496-1.997,3.665-2.937,6.442c-1.012,2.96-1.951,6.539-2.794,10.646
			c-0.86,4.161-1.588,8.694-2.169,13.477c-0.587,4.806-1.057,9.918-1.398,15.196c-0.341,5.221-0.513,10.511-0.513,15.726
			c0,1.542,0.014,3.075,0.043,4.591c0.037-0.089,0.074-0.175,0.109-0.264c2.335-5.616,4.424-11.385,6.213-17.145
			c1.774-5.728,3.215-11.494,4.284-17.133c1.049-5.556,1.582-10.906,1.582-15.901c0-8.579-0.828-12.606-1.524-14.471
			C294.45,21.176,294.218,20.704,294.029,20.386z"/>
	</g>
	<g>
		<path fill="#FFFFFF" d="M336.059,72.135c0,2.401-0.838,4.439-2.51,6.112c-1.675,1.673-3.711,2.51-6.111,2.51
			c-2.401,0-4.437-0.837-6.111-2.51c-1.673-1.673-2.51-3.711-2.51-6.112c0-1.198,0.221-2.321,0.663-3.361
			c0.441-1.043,1.057-1.957,1.847-2.748c0.789-0.788,1.705-1.404,2.748-1.848c1.042-0.438,2.162-0.662,3.363-0.662
			c1.199,0,2.321,0.224,3.363,0.662c1.042,0.444,1.957,1.06,2.748,1.848c0.788,0.791,1.404,1.705,1.847,2.748
			C335.837,69.814,336.059,70.937,336.059,72.135z M320.713,127.649c0-9.095,0.567-18.156,1.705-27.188
			c0.126-0.883,0.52-1.656,1.183-2.321c0.663-0.662,1.53-0.994,2.605-0.994c0.949,0,1.737,0.364,2.368,1.089
			c0.63,0.728,0.948,1.565,0.948,2.51c0,0.378-0.08,1.516-0.238,3.41c-0.158,1.897-0.347,4.155-0.567,6.774
			c-0.222,2.622-0.413,5.399-0.569,8.336c-0.159,2.937-0.236,5.637-0.236,8.101c0,3.347,0.331,6.046,0.994,8.098
			c0.663,2.055,1.516,3.648,2.557,4.785c1.042,1.138,2.146,1.894,3.315,2.272c1.168,0.381,2.288,0.57,3.363,0.57
			c1.768,0,3.601-0.63,5.495-1.897c1.896-1.261,3.837-3.029,5.829-5.304c1.989-2.272,3.989-5.003,6.012-8.193
			c2.023-3.189,4.012-6.743,5.972-10.66c0.315-0.63,0.757-1.12,1.324-1.467s1.198-0.522,1.897-0.522c1.009,0,1.845,0.378,2.51,1.138
			c0.659,0.757,0.991,1.579,0.991,2.462c0,0.633-0.126,1.169-0.378,1.61c-0.757,1.456-1.702,3.221-2.843,5.307
			c-1.135,2.083-2.43,4.232-3.886,6.442c-1.45,2.209-3.043,4.404-4.78,6.582c-1.737,2.181-3.588,4.138-5.542,5.874
			c-1.96,1.737-4.013,3.141-6.16,4.215c-2.148,1.075-4.326,1.61-6.536,1.61c-2.841,0-5.337-0.602-7.483-1.8
			c-2.148-1.201-3.965-2.808-5.447-4.831c-1.484-2.02-2.59-4.404-3.315-7.152C321.075,133.758,320.713,130.807,320.713,127.649z
			 M330.754,72.135c0-0.883-0.331-1.656-0.994-2.321c-0.663-0.662-1.437-0.994-2.321-0.994c-0.885,0-1.643,0.332-2.274,0.994
			c-0.632,0.665-0.947,1.439-0.947,2.321c0,0.885,0.315,1.645,0.947,2.275c0.63,0.63,1.388,0.946,2.274,0.946
			c0.884,0,1.658-0.315,2.321-0.946C330.423,73.779,330.754,73.02,330.754,72.135z"/>
		<path fill="#FFFFFF" d="M338.049,154.691c-3.588,0-6.826-0.794-9.631-2.358c-2.699-1.507-5.006-3.553-6.852-6.072
			c-1.805-2.456-3.158-5.361-4.02-8.631c-0.82-3.092-1.235-6.45-1.235-9.981c0-9.241,0.585-18.575,1.739-27.739
			c0.269-1.891,1.109-3.553,2.439-4.883c1.502-1.496,3.476-2.284,5.717-2.284c2.204,0,4.224,0.923,5.685,2.596
			c1.332,1.539,2.032,3.404,2.032,5.404c0,0.418-0.077,1.676-0.249,3.768l-0.567,6.78c-0.221,2.588-0.407,5.318-0.562,8.207
			c-0.155,2.863-0.232,5.51-0.232,7.866c0,2.871,0.264,5.138,0.782,6.743c0.579,1.794,1.198,2.711,1.613,3.166
			c0.51,0.556,1.003,0.923,1.427,1.06c1.78,0.579,3.112,0.496,5.055-0.799c1.567-1.04,3.235-2.568,4.963-4.545
			c1.817-2.075,3.705-4.651,5.608-7.651c1.926-3.035,3.86-6.49,5.751-10.27c0.691-1.378,1.688-2.473,2.966-3.255
			c3.161-1.931,7.528-1.367,10.015,1.473c1.364,1.567,2.08,3.419,2.08,5.361c0,1.404-0.324,2.682-0.957,3.794
			c-0.685,1.324-1.645,3.118-2.803,5.235c-1.192,2.186-2.562,4.459-4.072,6.751c-1.519,2.31-3.207,4.636-5.015,6.906
			c-1.871,2.35-3.911,4.51-6.061,6.419c-2.241,1.989-4.634,3.622-7.115,4.863C343.801,153.992,340.941,154.691,338.049,154.691z
			 M327.438,85.159c-3.55,0-6.74-1.312-9.224-3.8c-2.487-2.484-3.8-5.674-3.8-9.224c0-1.785,0.341-3.493,1.014-5.081
			c0.656-1.55,1.593-2.943,2.78-4.135c1.198-1.195,2.588-2.129,4.144-2.791c3.204-1.353,6.983-1.347,10.158-0.006
			c1.57,0.668,2.96,1.602,4.146,2.785c1.204,1.212,2.138,2.602,2.794,4.152c0.671,1.582,1.012,3.29,1.012,5.075
			c0,3.545-1.312,6.734-3.797,9.221C334.172,83.846,330.983,85.159,327.438,85.159z"/>
	</g>
	<g>
		<path fill="#FFFFFF" d="M399.719,116.66c-0.946,4.422-2.307,8.542-4.072,12.362c-1.771,3.823-3.648,7.152-5.637,9.995
			c-1.992,2.843-3.997,5.083-6.018,6.725c-2.02,1.642-3.757,2.527-5.21,2.654c-1.642,0-3.459-0.822-5.447-2.464
			c-1.989-1.639-3.883-3.932-5.682-6.866c-1.8-2.937-3.301-6.427-4.502-10.468c-1.201-4.043-1.8-8.433-1.8-13.17
			c0-4.167,0.364-7.324,1.089-9.474c0.728-2.146,1.186-3.376,1.375-3.694c0.315-0.567,0.742-1.009,1.278-1.327
			c0.536-0.315,1.152-0.473,1.848-0.473c1.072,0,1.926,0.364,2.556,1.089c0.63,0.728,0.948,1.533,0.948,2.416
			c0,0.633-0.129,1.169-0.378,1.61c-0.066,0.129-0.35,0.98-0.854,2.559c-0.507,1.579-0.757,3.946-0.757,7.104
			c0,3.728,0.378,7.17,1.135,10.327c0.759,3.158,1.673,5.872,2.748,8.147c1.075,2.272,2.195,4.058,3.364,5.353
			c1.166,1.295,2.132,1.94,2.888,1.94c0.504,0,1.247-0.473,2.227-1.421c0.977-0.946,2.02-2.241,3.126-3.883
			c1.103-1.642,2.241-3.599,3.41-5.874c1.166-2.272,2.241-4.751,3.221-7.436c0.977-2.682,1.768-5.525,2.367-8.525
			c0.602-3,0.9-6.046,0.9-9.141c0-0.63-0.014-1.247-0.046-1.848c-0.032-0.599-0.049-1.215-0.049-1.848
			c0-1.072,0.332-1.972,0.997-2.699c0.662-0.725,1.53-1.089,2.605-1.089c0.82,0,1.562,0.252,2.227,0.759
			c0.662,0.504,1.089,1.198,1.278,2.083c0-0.063,0.126,0.441,0.378,1.516s0.679,2.447,1.278,4.121
			c0.602,1.673,1.358,3.49,2.275,5.447c0.914,1.957,2.02,3.774,3.315,5.447c1.292,1.673,2.794,3.078,4.499,4.215
			c1.705,1.135,3.662,1.705,5.874,1.705c1.198,0,2.241-0.252,3.126-0.759c0.883-0.504,1.61-1.072,2.178-1.705
			c0.567-0.63,0.994-1.229,1.278-1.8c0.287-0.567,0.427-0.883,0.427-0.946c0.252-0.696,0.679-1.247,1.278-1.659
			c0.602-0.41,1.281-0.616,2.037-0.616c1.012,0,1.863,0.364,2.559,1.089c0.693,0.728,1.043,1.565,1.043,2.51
			c0,0.444-0.097,0.885-0.287,1.327c-0.378,0.885-0.931,1.894-1.656,3.032c-0.728,1.138-1.659,2.212-2.794,3.221
			c-1.138,1.012-2.482,1.848-4.026,2.51c-1.55,0.665-3.27,0.994-5.164,0.994c-2.212,0-4.264-0.393-6.158-1.183
			c-1.894-0.788-3.616-1.8-5.164-3.032s-2.952-2.619-4.215-4.167C401.676,119.803,400.605,118.239,399.719,116.66z"/>
		<path fill="#FFFFFF" d="M378.783,152.797c-2.685,0-5.459-1.169-8.25-3.473c-2.35-1.934-4.582-4.614-6.631-7.958
			c-1.994-3.255-3.665-7.127-4.969-11.514c-1.315-4.43-1.983-9.282-1.983-14.425c0-4.688,0.433-8.247,1.321-10.881
			c1.149-3.39,1.464-4.038,1.762-4.536c0.63-1.14,1.599-2.141,2.814-2.863c3.166-1.863,7.582-1.241,9.972,1.513
			c1.33,1.536,2.029,3.367,2.029,5.304c0,1.247-0.255,2.396-0.759,3.421c-0.123,0.347-0.35,1.043-0.682,2.086
			c-0.206,0.642-0.547,2.235-0.547,5.765c0,3.364,0.341,6.493,1.014,9.302c0.685,2.851,1.507,5.307,2.447,7.293
			c0.739,1.562,1.482,2.823,2.212,3.76c0.547-0.636,1.138-1.424,1.762-2.35c1.006-1.499,2.066-3.324,3.146-5.427
			s2.089-4.439,3-6.935c0.9-2.467,1.636-5.118,2.186-7.877c0.539-2.696,0.814-5.479,0.814-8.279c0-0.553-0.011-1.092-0.04-1.619
			c-0.034-0.671-0.054-1.364-0.054-2.078c0-2.169,0.742-4.129,2.149-5.668c1.507-1.651,3.53-2.522,5.854-2.522
			c1.78,0,3.47,0.573,4.897,1.662c1.496,1.14,2.504,2.754,2.911,4.662l0,0c0.126,0.436,0.238,0.911,0.358,1.43
			c0.212,0.897,0.593,2.123,1.138,3.642c0.559,1.553,1.272,3.261,2.118,5.063c0.774,1.659,1.719,3.212,2.811,4.622
			c0.991,1.287,2.155,2.378,3.462,3.247c0.971,0.65,2.098,0.966,3.43,0.966c0.287,0,0.682-0.032,0.94-0.178
			c0.47-0.269,0.845-0.553,1.086-0.822c0.416-0.461,0.57-0.731,0.616-0.822c0.089-0.175,0.155-0.309,0.203-0.413
			c0.009-0.023,0.017-0.049,0.026-0.072c0.559-1.547,1.567-2.854,2.92-3.785c3.175-2.166,7.605-1.719,10.267,1.049
			c1.49,1.565,2.27,3.482,2.27,5.559c0,1.037-0.215,2.066-0.642,3.06c-0.47,1.103-1.123,2.301-1.992,3.662
			c-0.946,1.484-2.149,2.874-3.582,4.146c-1.484,1.321-3.238,2.419-5.215,3.267c-4.433,1.897-10.173,1.737-14.752-0.175
			c-2.255-0.937-4.347-2.166-6.21-3.648c-1.017-0.811-1.989-1.688-2.903-2.619c-0.567,1.55-1.189,3.06-1.868,4.525
			c-1.874,4.046-3.9,7.637-6.023,10.671c-2.218,3.164-4.522,5.728-6.849,7.62c-2.748,2.232-5.235,3.416-7.605,3.622
			C379.038,152.791,378.909,152.797,378.783,152.797z M398.206,106.745c-0.08,2.035-0.278,4.06-0.596,6.052
			c0.441-0.244,0.931-0.41,1.45-0.49c0.479-0.069,0.954-0.063,1.413,0.017c-0.817-1.791-1.524-3.51-2.1-5.115
			C398.315,107.051,398.261,106.897,398.206,106.745z"/>
	</g>
	<g>
		<path fill="#FFFFFF" d="M498.81,120.07c-0.252,0.507-0.774,1.565-1.565,3.175c-0.788,1.61-1.8,3.456-3.032,5.542
			c-1.229,2.083-2.668,4.261-4.31,6.536c-1.642,2.272-3.473,4.359-5.493,6.253c-2.023,1.894-4.201,3.456-6.536,4.688
			c-2.338,1.232-4.8,1.848-7.39,1.848c-3.662,0-6.743-1.169-9.236-3.505c-2.496-2.338-4.31-5.273-5.447-8.812
			c-2.146,3.599-4.705,6.459-7.674,8.574c-2.969,2.118-5.937,3.172-8.903,3.172c-2.338,0-4.453-0.424-6.347-1.278
			c-1.894-0.851-3.505-2.052-4.831-3.599c-1.327-1.547-2.355-3.364-3.08-5.447c-0.725-2.083-1.089-4.359-1.089-6.82
			c0-4.926,0.837-9.267,2.51-13.027c1.673-3.757,3.805-6.9,6.396-9.425c2.588-2.525,5.447-4.422,8.574-5.685
			c3.126-1.261,6.141-1.894,9.047-1.894c1.957,0,3.757,0.269,5.399,0.805c1.642,0.539,3.046,1.123,4.215,1.754
			c1.169,0.63,2.069,1.215,2.699,1.751c0.63,0.539,0.98,0.84,1.043,0.9c0.693,0.822,1.043,1.673,1.043,2.559
			c0,0.946-0.35,1.785-1.043,2.51c-0.696,0.728-1.516,1.089-2.464,1.089c-1.009,0-1.863-0.347-2.556-1.043
			c-0.129-0.123-0.413-0.361-0.854-0.708c-0.441-0.347-1.04-0.711-1.8-1.092c-0.757-0.378-1.656-0.711-2.699-0.994
			c-1.043-0.284-2.227-0.427-3.553-0.427c-1.957,0-4.04,0.444-6.253,1.327c-2.209,0.885-4.23,2.261-6.061,4.121
			c-1.834,1.865-3.364,4.201-4.596,7.012c-1.229,2.811-1.845,6.141-1.845,9.992c0,1.201,0.126,2.416,0.378,3.648
			c0.252,1.232,0.693,2.355,1.327,3.364c0.63,1.012,1.482,1.831,2.556,2.462c1.075,0.633,2.401,0.949,3.98,0.949
			c1.138,0,2.447-0.378,3.932-1.138c1.481-0.757,2.903-1.926,4.261-3.505c1.358-1.579,2.59-3.568,3.697-5.969
			c1.103-2.398,1.877-5.241,2.321-8.525c0.126-0.883,0.536-1.625,1.229-2.227c0.696-0.599,1.516-0.9,2.464-0.9
			c0.883,0,1.656,0.347,2.321,1.043c0.662,0.693,1.026,1.484,1.089,2.367c0.063,1.201,0.189,2.888,0.378,5.069
			c0.189,2.178,0.616,4.341,1.281,6.488c0.662,2.149,1.656,4.012,2.983,5.591c1.327,1.579,3.158,2.367,5.493,2.367
			c1.516,0,3.017-0.41,4.502-1.229c1.481-0.822,2.937-1.911,4.356-3.27c1.421-1.358,2.78-2.903,4.075-4.642
			c1.292-1.737,2.479-3.487,3.553-5.258c1.072-1.765,2.02-3.47,2.84-5.115c0.822-1.642,1.516-3.063,2.086-4.261
			c0.315-0.696,0.771-1.232,1.373-1.61c0.599-0.381,1.247-0.57,1.943-0.57c1.072,0,1.943,0.395,2.605,1.183
			c0.662,0.791,0.994,1.628,0.994,2.51C499.094,119.187,498.999,119.628,498.81,120.07z"/>
		<path fill="#FFFFFF" d="M470.484,152.513c-4.8,0-8.92-1.579-12.245-4.694c-1.192-1.118-2.261-2.35-3.201-3.691
			c-1.355,1.444-2.811,2.722-4.359,3.826c-3.708,2.645-7.565,3.989-11.456,3.989c-2.957,0-5.702-0.562-8.155-1.668
			c-2.476-1.112-4.619-2.708-6.364-4.745c-1.682-1.963-2.995-4.273-3.897-6.866c-0.883-2.542-1.332-5.324-1.332-8.267
			c0-5.522,0.971-10.508,2.891-14.818c1.894-4.255,4.367-7.883,7.344-10.786c2.989-2.914,6.35-5.141,9.995-6.614
			c6.19-2.493,12.405-2.843,17.463-1.192c1.886,0.619,3.545,1.312,4.937,2.063c1.453,0.782,2.585,1.524,3.462,2.272
			c0.751,0.639,1.158,0.997,1.232,1.069c0.115,0.109,0.224,0.226,0.324,0.347c1.361,1.613,2.08,3.479,2.08,5.396
			c0,2.083-0.782,4.003-2.264,5.553c-1.201,1.255-2.662,2.046-4.278,2.33c0.023,0.023,0.046,0.046,0.066,0.066
			c1.367,1.433,2.161,3.192,2.295,5.095c0.066,1.247,0.189,2.886,0.373,5c0.163,1.857,0.533,3.731,1.1,5.568
			c0.493,1.599,1.195,2.926,2.149,4.06c0.347,0.413,0.845,0.797,2.123,0.797c0.768,0,1.545-0.224,2.376-0.682
			c1.146-0.636,2.307-1.51,3.439-2.593c1.247-1.192,2.453-2.57,3.588-4.092c1.221-1.639,2.338-3.293,3.321-4.914
			c1.014-1.671,1.911-3.284,2.662-4.794c0.811-1.619,1.493-3.015,2.052-4.189c0.642-1.418,1.665-2.602,3.006-3.444
			c3.261-2.075,7.794-1.43,10.259,1.507c1.327,1.585,2.026,3.43,2.026,5.341c0,1.04-0.215,2.069-0.639,3.06l-1.659,3.381
			c-0.834,1.705-1.88,3.616-3.192,5.84c-1.281,2.169-2.805,4.482-4.53,6.874c-1.805,2.496-3.843,4.814-6.052,6.889
			c-2.301,2.152-4.823,3.96-7.493,5.37C476.96,151.72,473.782,152.513,470.484,152.513z M449.832,111.871
			c-1.381,0-2.937,0.341-4.622,1.014c-1.622,0.65-3.158,1.699-4.553,3.121c-1.447,1.467-2.691,3.384-3.702,5.691
			c-0.98,2.235-1.476,5.003-1.476,8.224c0,0.897,0.097,1.828,0.289,2.765c0.146,0.722,0.39,1.347,0.742,1.906
			c0.261,0.421,0.593,0.736,1.055,1.006c0.384,0.226,0.989,0.344,1.754,0.344c0.152,0,0.739-0.046,1.926-0.653
			c0.969-0.496,1.951-1.321,2.931-2.459c1.083-1.261,2.106-2.923,3.035-4.94c0.914-1.986,1.573-4.436,1.957-7.273
			c0.281-1.963,1.215-3.665,2.705-4.96c1.103-0.949,2.387-1.567,3.777-1.831c-0.011-0.009-0.02-0.02-0.029-0.029l0,0
			c-0.011,0-0.195-0.149-0.456-0.352c-0.095-0.075-0.387-0.284-1.055-0.619c-0.493-0.246-1.126-0.476-1.88-0.682
			C451.566,111.963,450.758,111.871,449.832,111.871z M455.801,131.394c0.163,0,0.33,0.009,0.499,0.029
			c0.373,0.043,0.731,0.132,1.072,0.261c-0.31-1.364-0.539-2.737-0.685-4.109c-0.401,1.37-0.874,2.656-1.413,3.851
			C455.446,131.406,455.623,131.394,455.801,131.394z"/>
	</g>
	<g>
		<path fill="#FFFFFF" d="M513.304,137.974c1.012-2.083,2.181-4.37,3.507-6.866c1.324-2.496,2.745-5.02,4.261-7.579
			c1.516-2.559,3.109-5.101,4.785-7.625c1.671-2.527,3.424-4.926,5.255-7.201c1.831-2.209,3.679-3.803,5.542-4.783
			c1.863-0.98,3.616-1.47,5.258-1.47c3.284,0,5.717,1.201,7.296,3.602c1.576,2.398,2.367,5.367,2.367,8.903
			c0,0.822-0.046,1.817-0.14,2.983c-0.095,1.172-0.192,2.416-0.287,3.742s-0.189,2.671-0.284,4.026
			c-0.095,1.358-0.14,2.639-0.14,3.837c0,1.516,0.077,2.969,0.235,4.359c0.158,1.39,0.459,2.605,0.9,3.648
			c0.441,1.04,1.075,1.863,1.897,2.462c0.82,0.602,1.894,0.9,3.221,0.9c2.398,0,4.734-0.931,7.009-2.794
			c2.272-1.863,4.373-4.075,6.298-6.631c1.926-2.559,3.602-5.164,5.02-7.814c1.421-2.654,2.479-4.8,3.175-6.442
			c0.315-0.696,0.774-1.232,1.373-1.61c0.602-0.381,1.246-0.57,1.943-0.57c1.075,0,1.943,0.395,2.605,1.183
			c0.665,0.791,0.994,1.628,0.994,2.51c0,0.444-0.095,0.885-0.284,1.327c-0.252,0.507-0.756,1.55-1.516,3.126
			c-0.756,1.579-1.751,3.396-2.983,5.447c-1.232,2.055-2.671,4.232-4.31,6.536c-1.645,2.307-3.459,4.404-5.447,6.301
			c-1.992,1.894-4.138,3.473-6.442,4.737c-2.307,1.261-4.722,1.894-7.247,1.894c-2.843,0-5.149-0.553-6.917-1.659
			c-1.768-1.103-3.158-2.556-4.167-4.356c-1.012-1.802-1.691-3.791-2.037-5.969c-0.347-2.181-0.522-4.373-0.522-6.585
			c0-0.946,0.049-2.02,0.143-3.221c0.095-1.198,0.221-2.462,0.378-3.788c0.158-1.327,0.284-2.654,0.378-3.98
			c0.095-1.324,0.143-2.588,0.143-3.788c0-2.02-0.318-3.393-0.948-4.121c-0.63-0.725-1.201-1.089-1.705-1.089
			c-1.012,0-2.163,0.585-3.456,1.751c-1.295,1.169-2.654,2.702-4.075,4.596s-2.874,4.026-4.359,6.393
			c-1.484,2.37-2.874,4.722-4.167,7.058c-1.295,2.338-2.496,4.565-3.602,6.68c-1.103,2.115-1.974,3.868-2.605,5.258
			c-1.264,2.651-2.525,4.436-3.788,5.35c-1.264,0.917-2.559,1.375-3.883,1.375c-1.834,0-3.301-0.553-4.407-1.659
			c-1.106-1.103-1.656-2.668-1.656-4.688c0-0.441,0.06-1.31,0.189-2.605c0.126-1.295,0.284-2.843,0.473-4.642
			c0.189-1.8,0.378-3.742,0.57-5.826c0.189-2.086,0.378-4.152,0.567-6.207c0.189-2.052,0.347-3.963,0.473-5.731
			c0.126-1.768,0.189-3.252,0.189-4.453c0-1.576-0.063-3.092-0.189-4.545c-0.126-1.453-0.378-2.338-0.757-2.654
			c-0.57,0.189-1.579,1.373-3.032,3.553c-1.453,2.178-3.315,6.015-5.591,11.508c-0.315,0.696-0.791,1.232-1.421,1.61
			c-0.63,0.381-1.295,0.57-1.989,0.57c-1.075,0-1.926-0.364-2.556-1.092c-0.633-0.725-0.948-1.562-0.948-2.51
			c0-0.441,0.095-0.914,0.284-1.418c2.843-6.76,5.51-11.732,8.006-14.921c2.493-3.189,4.972-4.785,7.436-4.785
			c1.453,0,2.682,0.364,3.694,1.089c1.009,0.728,1.814,1.691,2.416,2.891c0.599,1.201,1.043,2.525,1.327,3.977
			s0.427,2.937,0.427,4.453c0,1.138-0.08,2.906-0.238,5.304c-0.158,2.401-0.364,4.975-0.616,7.723
			c-0.252,2.745-0.49,5.479-0.711,8.193C513.699,133.87,513.493,136.143,513.304,137.974z"/>
		<path fill="#FFFFFF" d="M557.167,152.513c-3.668,0-6.783-0.782-9.253-2.33c-2.39-1.493-4.301-3.49-5.671-5.935
			c-1.261-2.247-2.118-4.748-2.545-7.43c-0.381-2.404-0.576-4.851-0.576-7.276c0-1.046,0.052-2.238,0.158-3.568
			c0.097-1.252,0.229-2.573,0.395-3.96c0.149-1.258,0.269-2.516,0.358-3.774c0.06-0.834,0.1-1.639,0.117-2.421
			c-0.716,0.777-1.47,1.688-2.247,2.725c-1.338,1.782-2.737,3.831-4.152,6.089c-1.441,2.304-2.802,4.608-4.043,6.852
			c-1.278,2.307-2.462,4.502-3.553,6.588c-1.055,2.023-1.891,3.705-2.496,5.038c-1.639,3.436-3.333,5.734-5.218,7.098
			c-2.02,1.464-4.195,2.209-6.462,2.209c-2.992,0-5.591-1.02-7.519-2.949c-1.341-1.338-2.946-3.783-2.946-7.8
			c0-0.516,0.06-1.53,0.212-3.04c0.126-1.295,0.284-2.854,0.473-4.668c0.189-1.78,0.375-3.705,0.565-5.768l0.567-6.207
			c0.054-0.57,0.103-1.132,0.152-1.682c-0.195,0.461-0.398,0.946-0.607,1.45c-0.736,1.631-1.831,2.866-3.224,3.699
			c-3.341,2.023-7.737,1.355-10.135-1.413c-1.318-1.51-2.023-3.381-2.023-5.393c0-0.969,0.189-1.966,0.565-2.963
			c3.086-7.347,5.897-12.557,8.66-16.09c3.358-4.295,7.026-6.473,10.903-6.473c2.381,0,4.487,0.645,6.258,1.914
			c1.596,1.152,2.866,2.662,3.785,4.496c0.782,1.565,1.355,3.278,1.714,5.106c0.335,1.728,0.507,3.51,0.507,5.296
			c0,1.201-0.08,3.063-0.246,5.594c-0.046,0.696-0.097,1.41-0.149,2.135c0.883-1.413,1.785-2.817,2.699-4.195
			c1.719-2.596,3.568-5.132,5.493-7.525c2.235-2.694,4.551-4.671,6.923-5.917c2.493-1.312,4.952-1.977,7.307-1.977
			c6.035,0,9.299,3.037,10.972,5.585c2.052,3.121,3.092,6.932,3.092,11.322c0,0.92-0.049,2.035-0.155,3.338
			c-0.095,1.158-0.189,2.387-0.284,3.699l-0.284,4.02c-0.086,1.249-0.129,2.427-0.129,3.53c0,1.353,0.069,2.651,0.206,3.863
			c0.109,0.96,0.304,1.777,0.582,2.43c0.18,0.424,0.361,0.565,0.43,0.613l0,0c0.014,0,0.206,0.06,0.633,0.06
			c1.361,0,2.742-0.587,4.221-1.8c1.989-1.628,3.863-3.605,5.571-5.872c1.791-2.378,3.358-4.817,4.657-7.244
			c1.35-2.519,2.358-4.568,3.003-6.084c0.716-1.585,1.737-2.768,3.075-3.613c3.315-2.098,7.809-1.43,10.267,1.504
			c1.324,1.576,2.026,3.424,2.026,5.341c0,1.04-0.215,2.069-0.639,3.06c-0.352,0.725-0.848,1.751-1.596,3.304
			c-0.811,1.691-1.88,3.645-3.175,5.803c-1.269,2.118-2.785,4.413-4.496,6.82c-1.8,2.525-3.817,4.857-5.998,6.935
			c-2.264,2.155-4.74,3.972-7.362,5.413C563.572,151.694,560.422,152.513,557.167,152.513z M510.335,141.223
			c-0.011,0.183-0.017,0.332-0.017,0.447c0,0.768,0.132,1.341,0.364,1.57c0.115,0.117,0.373,0.375,1.298,0.375
			c0.138,0,0.559,0,1.298-0.536c0.08-0.06,0.324-0.258,0.705-0.757c-0.61,0.097-1.252,0.066-1.885-0.117
			C511.424,142.014,510.825,141.673,510.335,141.223z"/>
	</g>
</g>
<g>
	<g>
		<path fill="#FFFFFF" d="M55.683,207.392c0-6.705,5.078-11.23,11.752-11.23c5.241,0,8.041,2.963,9.471,5.829l-4.814,2.278
			c-0.716-1.725-2.573-3.158-4.657-3.158c-3.548,0-6.055,2.734-6.055,6.281c0,3.55,2.507,6.284,6.055,6.284
			c2.083,0,3.94-1.433,4.657-3.158l4.814,2.278c-1.398,2.8-4.23,5.826-9.471,5.826C60.761,218.622,55.683,214.066,55.683,207.392z"
			/>
	</g>
	<g>
		<path fill="#FFFFFF" d="M112.169,218.232v-8.723h-9.015v8.723h-5.599V196.52h5.599v8.107h9.015v-8.107h5.599v21.712H112.169z"/>
	</g>
	<g>
		<path fill="#FFFFFF" d="M139.914,218.232V196.52h5.599v21.712H139.914z"/>
	</g>
	<g>
		<path fill="#FFFFFF" d="M186.697,218.232v-14.127l-5.502,14.127h-2.476l-5.467-14.127v14.127h-5.599V196.52h7.78l4.525,11.783
			l4.556-11.783h7.78v21.712H186.697z"/>
	</g>
	<g>
		<path fill="#FFFFFF" d="M229.216,218.232l-9.176-12.565v12.565h-5.599V196.52h5.76l8.789,11.947V196.52h5.631v21.712H229.216z"/>
	</g>
	<g>
		<path fill="#FFFFFF" d="M256.765,218.232V196.52h15.918v4.883h-10.319v3.387h10.092v4.88h-10.092v3.679h10.319v4.883H256.765z"/>
	</g>
	<g>
		<path fill="#FFFFFF" d="M300.098,218.232v-8.757l-8.236-12.955h6.316l4.722,8.009l4.654-8.009h6.347l-8.204,12.955v8.757H300.098z
			"/>
	</g>
	<g>
		<path fill="#FFFFFF" d="M358.739,215.172l2.963-4.198c1.565,1.562,3.972,2.863,6.935,2.863c1.92,0,3.089-0.748,3.089-1.788
			c0-2.963-12.302-0.587-12.302-8.952c0-3.645,3.092-6.9,8.657-6.9c3.485,0,6.511,1.04,8.823,3.026l-3.06,4.003
			c-1.822-1.496-4.198-2.244-6.347-2.244c-1.628,0-2.344,0.65-2.344,1.562c0,2.765,12.27,0.748,12.27,8.82
			c0,4.361-3.221,7.258-9.049,7.258C363.98,218.622,360.922,217.255,358.739,215.172z"/>
	</g>
	<g>
		<path fill="#FFFFFF" d="M414.835,218.232l-3.29-13.606l-3.287,13.606h-5.923l-6.218-21.712h6.281l3.29,14.485l3.708-14.485h4.298
			l3.711,14.485l3.255-14.485h6.313l-6.215,21.712H414.835z"/>
	</g>
	<g>
		<path fill="#FFFFFF" d="M446.972,218.232V196.52h15.918v4.883h-10.319v3.387h10.09v4.88h-10.09v3.679h10.319v4.883H446.972z"/>
	</g>
	<g>
		<path fill="#FFFFFF" d="M484.382,218.232V196.52H500.3v4.883h-10.319v3.387h10.092v4.88h-10.092v3.679H500.3v4.883H484.382z"/>
	</g>
	<g>
		<path fill="#FFFFFF" d="M521.792,218.232V196.52h10.872c4.883,0,7.551,3.29,7.551,7.227c0,3.906-2.668,7.195-7.551,7.195h-5.273
			v7.29H521.792z M534.518,203.747c0-1.496-1.106-2.344-2.602-2.344h-4.525v4.657h4.525
			C533.412,206.059,534.518,205.211,534.518,203.747z"/>
	</g>
</g>
</svg>
